PathFileType	4	(X/Y/Z)	30_2_55_p0_0-600_filt_butterworth.trc
DataRate	CameraRate	NumFrames	NumMarkers	Units	OrigDataRate	OrigDataStartFrame	OrigNumFrames
51.0	51.0	5	27	m	51.0	225	600
Frame#	Time	RHip			RKnee			RAnkle			RBigToe			RSmallToe			RHeel			LHip			LKnee			LAnkle			LBigToe			LSmallToe			LHeel			Neck			Head			Nose			RShoulder			RElbow			RWrist			RThumb			RIndex			RPinky			LShoulder			LElbow			LWrist			LThumb			LIndex			LPinky			
		X1	Y1	Z1	X2	Y2	Z2	X3	Y3	Z3	X4	Y4	Z4	X5	Y5	Z5	X6	Y6	Z6	X7	Y7	Z7	X8	Y8	Z8	X9	Y9	Z9	X10	Y10	Z10	X11	Y11	Z11	X12	Y12	Z12	X13	Y13	Z13	X14	Y14	Z14	X15	Y15	Z15	X16	Y16	Z16	X17	Y17	Z17	X18	Y18	Z18	X19	Y19	Z19	X20	Y20	Z20	X21	Y21	Z21	X22	Y22	Z22	X23	Y23	Z23	X24	Y24	Z24	X25	Y25	Z25	X26	Y26	Z26	X27	Y27	Z27	
225	4.411764705882353	0.27148818609198644	0.5369099371526516	0.9850387154587124	0.2977599087281928	0.5471589441928509	1.3978957523802533	0.2916788333173766	0.6003758511869951	1.8031767485858032	0.2681623282442894	0.3719520418266105	1.8013353233706024	0.3311929708094711	0.4084633576619498	1.8090926516791312	0.2719701919516364	0.6366493934649287	1.8518169535115365	0.0652312395230602	0.5477045327835157	0.9957283184680902	0.07213665564849875	0.5549406126192252	1.40457334373415	0.0754184608146976	0.5498918049292485	1.7730711745433947	0.07059599338009022	0.4097491085048772	1.826810996733585	0.02951806028502392	0.42375592127010064	1.816729679413398	0.09502325588016339	0.6113362147345784	1.838869298587262	0.15289363731301675	0.543861381109896	0.5156890742227097	0.15946161609249895	0.4825882361888191	0.2542333768083702	0.14670608106435173	0.38670739186368563	0.39381645193459613	0.29021388262086	0.4978929856797235	0.5705665777986597	0.374043010816746	0.5219071686520359	0.821978352819871	0.3115288868966487	0.3072938883226498	0.9199349391374736	0.23987487314878564	0.18572494268795264	0.9730342245068839	0.25281033145741205	0.17386781954459832	0.9762361141780888	0.29392325723925644	0.21699591837662802	0.9965294787329053	0.018839343020749227	0.5302254342736685	0.5888067266504531	-0.033221694144230596	0.5040754334587016	0.813587145695722	0.051839477142233276	0.3366916758578197	0.964784575320724	0.12789279623646616	0.26332020037523224	1.014184551712491	0.10684308664846758	0.2359777846554432	1.0178864361203175	0.07377398241010019	0.28205521999762767	1.0494306547362056
226	4.431372549019608	0.26612099363006636	0.5351468809374043	0.9850539594433433	0.29607784429646217	0.5459129747994922	1.3977760763661164	0.29279590503517056	0.6007254353873448	1.802833075960559	0.26824833225660794	0.37324197321283537	1.8011106299664519	0.3315968276703295	0.4089397199329664	1.809121888843765	0.2729163898213486	0.637445937986499	1.8514897746747176	0.062340432452627624	0.5457806103902064	0.9964351311833919	0.07139723673665922	0.5536183199918696	1.4042662651634	0.07520022371743816	0.5494356290453037	1.7720129911831952	0.07049183398616474	0.4091661385087439	1.8269125324841453	0.029541647282735808	0.4237622371445041	1.8167466378776673	0.09602686699679448	0.612391680091082	1.839950362592412	0.1504251959440097	0.5430466232205425	0.5143086369832095	0.15768581288382183	0.4743637692629683	0.25348376406985046	0.14129944285492424	0.38009798523062005	0.3939778453056203	0.289999443600476	0.4891524329682838	0.5692868335879495	0.3771438492644613	0.5246902241869754	0.8201190582001547	0.33903772505519764	0.3067307867153219	0.9148680645460128	0.2742296961674834	0.17786143081581285	0.9631156629943087	0.29210428111612186	0.16730343025240746	0.9676762728495744	0.3333114461297409	0.21462009124176706	0.989948162427737	0.018258578909859182	0.5303418098552267	0.5888677529190801	-0.039570979912494926	0.5106796017320938	0.8135745224302526	0.05100318215464536	0.3414418105776944	0.9671452647903307	0.12953412659470934	0.27876284040279914	1.0174156277154125	0.10564393297665682	0.24179785367589807	1.0207929186984754	0.06775573202414946	0.3031443377449276	1.0564509530996657
227	4.450980392156863	0.261094395744153	0.5337777170790942	0.9849798941823366	0.29411223821727545	0.5446175606964947	1.395296614167787	0.293780218513227	0.5967559626577124	1.8038194982018008	0.2681874548218655	0.3730552727319417	1.8015891352831734	0.33203056666729447	0.40926660654988267	1.8094757460582853	0.27379623156853244	0.6406890322103573	1.8513943236409698	0.0604400063015683	0.5444987058399112	0.9974974488207435	0.07054554728151907	0.551974503273142	1.4039147429987406	0.07539438301472702	0.548861063752079	1.7722446028289205	0.07040736899604874	0.40905471600679766	1.8285866471737184	0.02961989071414254	0.4237649178932851	1.8167818057761294	0.09809477254608968	0.6133309878567954	1.841195135076321	0.14837430563117593	0.5426153657998878	0.5131201611890208	0.15288464221222567	0.46623062090277867	0.2528506114312139	0.13618293822563382	0.3743618897573396	0.39450148957411435	0.2898194786097835	0.480170436156018	0.5681559417083006	0.38250645841145464	0.521059547382861	0.8142983689934136	0.36863423054142175	0.30025762706096065	0.9069540089442619	0.31869088916743976	0.16376927021364704	0.946704684800806	0.3388797686623015	0.15619544092677992	0.9524985891978636	0.3761416961565427	0.2080259332382413	0.9766382195605351	0.01612088808456834	0.5306791538808906	0.5890392502221375	-0.0451050924045318	0.5167322318179124	0.8133344226331947	0.048164353627989	0.35009921563876617	0.9707355031763495	0.12392976465259839	0.3002509508768144	1.025925505427464	0.09888236349282435	0.2602450041340881	1.0296418813627164	0.06155780882017974	0.32085962221609576	1.064629683702061
228	4.470588235294118	0.2591047429505233	0.5336645275042279	0.9860671711352024	0.2935288128011473	0.5439169922054363	1.390939989255647	0.2955002099923198	0.590358867554728	1.8041964831740722	0.2682913750538807	0.3724411086306733	1.8026805600810416	0.33230961925827157	0.408125969003395	1.8099243267689138	0.27427242077434794	0.6454232878432506	1.8531850925528301	0.05918136444571352	0.5439411042971094	0.9982724956669936	0.06973973742473653	0.5507710699391195	1.403865420075765	0.07573014694453911	0.5493983967384773	1.7724135016929514	0.0704360939796927	0.40913480083961906	1.8293515860176242	0.02974194113554552	0.4237692758921401	1.8167957927199418	0.09985938113418416	0.6137371559929461	1.8417443734830734	0.14589951371824117	0.5425670158715784	0.5135906368014144	0.14441063355617162	0.46097544744199864	0.2526678907248901	0.1317950804596094	0.3690302300074124	0.3946559720108216	0.2897393527222865	0.4754855039980569	0.5673725947055182	0.38965676417925876	0.5042782082565971	0.8002264233033842	0.3984452620651229	0.2855059859131336	0.8917140455792021	0.37083596741307084	0.14254045485151745	0.9267194836991964	0.3902781823083177	0.14025652925031795	0.9329965826218536	0.41901526541165174	0.19329162752963513	0.9579838087084573	0.013109125547881573	0.5312425778506474	0.5893367763079165	-0.04770140961805974	0.5199614513270715	0.8133227389194368	0.043027079033085364	0.36314699570322134	0.9747821586440877	0.1124902485355246	0.32932417119606433	1.0404629681710993	0.08774814749694068	0.2910650627356875	1.0442162984961514	0.05682462336474015	0.33165530159530077	1.0716245293020477
229	4.490196078431373	0.2606661963058699	0.5335527851548013	0.9884128514241912	0.2945781458854836	0.5440156592664245	1.3873637046452831	0.29726338942502517	0.5850190100722354	1.803486375765401	0.26844036117934095	0.37199761676382653	1.8034817219371329	0.33120326990197685	0.4038644792928303	1.809218897756152	0.2747157326017837	0.648940241710459	1.8579173703029648	0.0580571024136834	0.5437764655869406	0.9993537408491915	0.06896630148316515	0.5503622175385585	1.4050402326847782	0.07549797771238083	0.55282918086073	1.7721088796059936	0.0705591309167473	0.4091526358785519	1.8281627433925867	0.02982220324098006	0.423816230605869	1.8167283430929855	0.10049634548501478	0.6135245368338718	1.8417960777916798	0.1429711553790977	0.5426733216379426	0.515630442569697	0.13449659153721158	0.45576925183728556	0.252872095025659	0.12866552982386537	0.3654100300493619	0.3948523802123833	0.2897109024411633	0.4750563163388406	0.5670457770403741	0.3968749665160325	0.4768459170138375	0.7795140525617645	0.4275486729084392	0.27171142886993715	0.8730882657199484	0.41904660898067225	0.13000061227741977	0.9113968632518579	0.4362162451019851	0.12669267143757393	0.9157973005894048	0.4578471785873076	0.1720941061132219	0.9366620081487268	0.01101185965584933	0.5316141537456581	0.5896139326958197	-0.04797868473201395	0.5205965316399467	0.8138409498528871	0.03552675932070453	0.3800348409292964	0.9799442944701269	0.10028229460701427	0.3560813323990075	1.0540183723819072	0.07669178209391361	0.3206317553480358	1.0588229144937331	0.053399212449687684	0.33869715244114856	1.0766271585664666
